<svg xmlns="http://www.w3.org/2000/svg" xmlns:xlink="http://www.w3.org/1999/xlink" width="900" zoomAndPan="magnify" viewBox="0 0 785.25 105.749996" height="141" preserveAspectRatio="xMidYMid meet" version="1.0"><defs><clipPath id="67db1144d6"><path d="M 0.550781 0 L 783.949219 0 L 783.949219 105.5 L 0.550781 105.5 Z M 0.550781 0 " clip-rule="nonzero"/></clipPath></defs><g clip-path="url(#67db1144d6)"><path fill="" d="M 0.550781 -208.382812 L 783.949219 -208.382812 L 783.949219 313.882812 L 0.550781 313.882812 Z M 0.550781 -208.382812 " fill-opacity="1" fill-rule="nonzero"/></g><path fill="#ffffff" d="M 624.648438 45.042969 L 610.207031 40.328125 L 619.261719 52.75 L 610.355469 65.097656 L 624.648438 60.382812 L 633.328125 72.800781 L 633.328125 57.464844 L 647.917969 52.75 L 633.328125 47.960938 L 633.328125 32.699219 Z M 624.648438 45.042969 " fill-opacity="1" fill-rule="nonzero"/><path fill="#ffffff" d="M 661.535156 17.585938 L 634.074219 17.585938 L 666.097656 52.75 L 634.074219 87.917969 L 661.535156 87.917969 L 693.558594 52.75 Z M 122.070312 38.160156 C 126.410156 38.160156 130.675781 40.253906 133.515625 43.773438 L 134.566406 45.042969 L 147.957031 35.839844 L 146.761719 34.34375 C 140.851562 26.9375 131.796875 22.671875 122.070312 22.671875 C 104.9375 22.671875 90.945312 36.066406 90.945312 52.449219 C 90.945312 68.835938 104.9375 82.230469 122.070312 82.230469 C 131.722656 82.230469 140.699219 78.039062 146.609375 70.78125 L 147.808594 69.285156 L 134.414062 60.082031 L 133.367188 61.355469 C 130.449219 64.871094 126.335938 66.890625 121.996094 66.890625 C 114.0625 66.890625 107.328125 60.308594 107.328125 52.527344 C 107.40625 44.746094 114.140625 38.160156 122.070312 38.160156 Z M 265.953125 56.042969 L 241.710938 24.316406 L 226.296875 24.316406 L 226.296875 80.433594 L 241.261719 80.433594 L 241.261719 49.007812 L 263.855469 80.433594 L 280.917969 80.433594 L 280.917969 24.316406 L 265.953125 24.316406 Z M 323.566406 64.273438 C 323.566406 64.722656 322.964844 64.796875 322.667969 64.796875 C 322.441406 64.796875 321.992188 64.722656 321.769531 64.199219 L 309.347656 24.316406 L 292.140625 24.316406 L 310.472656 80.433594 L 334.9375 80.433594 L 353.269531 24.316406 L 336.058594 24.316406 Z M 462.882812 57.539062 C 468.867188 54.097656 472.308594 47.8125 471.785156 40.929688 C 471.113281 31.574219 462.957031 24.394531 453.230469 24.394531 L 424.574219 24.394531 L 424.574219 80.507812 L 439.539062 80.507812 L 439.539062 60.308594 L 446.273438 60.308594 C 446.945312 60.308594 447.542969 60.382812 447.992188 60.980469 L 457.644531 80.507812 L 474.480469 80.507812 Z M 452.78125 45.269531 L 439.613281 45.269531 L 439.613281 39.28125 L 452.78125 39.28125 C 454.578125 39.28125 456.074219 40.480469 456.074219 42.273438 C 456.074219 44.070312 454.578125 45.269531 452.78125 45.269531 Z M 545.785156 80.433594 L 590.679688 80.433594 L 590.679688 65.46875 L 560.75 65.46875 L 560.75 58.734375 L 587.683594 58.734375 L 587.683594 45.269531 L 560.75 45.269531 L 560.75 39.28125 L 590.679688 39.28125 L 590.679688 24.316406 L 545.785156 24.316406 Z M 511.964844 45.492188 C 503.960938 43.695312 501.640625 42.5 501.640625 39.882812 L 501.640625 39.730469 C 501.640625 37.636719 503.210938 35.988281 507.101562 35.988281 C 512.265625 35.988281 516.453125 37.636719 522.066406 41.003906 L 531.046875 30.378906 C 524.761719 25.367188 517.203125 22.671875 507.402344 22.671875 C 493.484375 22.671875 485.179688 30.453125 485.179688 41.226562 L 485.179688 41.378906 C 485.179688 53.273438 494.980469 56.789062 507.328125 59.558594 C 515.183594 61.355469 517.351562 62.703125 517.351562 65.097656 L 517.351562 65.246094 C 517.351562 67.714844 514.585938 69.210938 510.246094 69.210938 C 503.511719 69.210938 496.925781 66.816406 491.238281 62.253906 L 482.1875 72.953125 C 489.292969 79.3125 499.621094 82.53125 509.871094 82.53125 C 523.9375 82.53125 533.8125 75.496094 533.8125 63.675781 L 533.8125 63.523438 C 533.8125 52.675781 525.285156 48.410156 511.964844 45.492188 Z M 184.320312 22.746094 C 167.5625 22.746094 153.945312 36.140625 153.945312 52.527344 C 153.945312 68.988281 167.5625 82.304688 184.320312 82.304688 C 201.082031 82.304688 214.699219 68.910156 214.699219 52.527344 C 214.699219 36.066406 201.082031 22.746094 184.320312 22.746094 Z M 184.320312 66.742188 C 176.464844 66.742188 170.105469 60.382812 170.105469 52.527344 C 170.105469 44.667969 176.464844 38.308594 184.320312 38.308594 C 192.175781 38.308594 198.539062 44.667969 198.539062 52.527344 C 198.539062 60.382812 192.175781 66.742188 184.320312 66.742188 Z M 363.96875 80.433594 L 408.859375 80.433594 L 408.859375 65.46875 L 378.933594 65.46875 L 378.933594 58.734375 L 405.867188 58.734375 L 405.867188 45.269531 L 378.933594 45.269531 L 378.933594 39.28125 L 408.859375 39.28125 L 408.859375 24.316406 L 363.96875 24.316406 Z M 363.96875 80.433594 " fill-opacity="1" fill-rule="nonzero"/></svg>